<svg width="92" height="21" viewBox="0 0 92 21" fill="none" xmlns="http://www.w3.org/2000/svg">
<rect width="92" height="21" rx="5" fill="#0077FF"/>
<g clip-path="url(#clip0_1_85)">
<path d="M29.0732 12.3059C29.0732 13.4446 28.013 14.2692 26.5209 14.2692H23.0261V7.20117H26.4031C27.856 7.20117 28.8769 7.98652 28.8769 9.08598C28.8769 9.83205 28.4842 10.3033 27.8952 10.5781C28.5235 10.8137 29.0732 11.442 29.0732 12.3059ZM24.5575 8.49698V10.0284H26.3638C26.9136 10.0284 27.267 9.71427 27.267 9.28233C27.267 8.85039 26.8743 8.49698 26.3638 8.49698H24.5575ZM26.5209 12.9734C27.1099 12.9734 27.5418 12.62 27.5418 12.1095C27.5418 11.5991 27.1492 11.2457 26.5209 11.2457H24.5575V12.9734H26.5209Z" fill="white"/>
<path d="M34.8456 14.23L32.4111 11.442H32.0184V14.23H30.4478V7.20117H32.0184V9.91058H32.4111L34.7671 7.20117H36.6128L33.6677 10.5781L36.8874 14.23H34.8456Z" fill="white"/>
<path d="M36.8871 10.7359C36.8871 8.61551 38.458 7.08411 40.6567 7.08411C42.8558 7.08411 44.4264 8.61551 44.4264 10.7359C44.4264 12.8564 42.8558 14.3878 40.6567 14.3878C38.458 14.3878 36.8871 12.8564 36.8871 10.7359ZM42.7774 10.7359C42.7774 9.40086 41.9133 8.49773 40.6567 8.49773C39.4002 8.49773 38.5364 9.40086 38.5364 10.7359C38.5364 12.071 39.4002 12.9742 40.6567 12.9742C41.9133 12.9742 42.7774 12.071 42.7774 10.7359Z" fill="white"/>
<path d="M50.4343 7.20117H52.0052V14.23H50.4343V11.4027H47.293V14.23H45.7224V7.20117H47.293V9.98911H50.4343V7.20117Z" fill="white"/>
<path d="M55.3822 14.23V8.61477H52.9475V7.20117H59.3481V8.61477H56.9134V14.23H55.3822Z" fill="white"/>
<path d="M66.1018 10.304V14.2307H64.9631L64.649 13.1312C64.2956 13.7202 63.5496 14.3878 62.4109 14.3878C60.9971 14.3878 59.9762 13.4454 59.9762 12.1495C59.9762 10.8537 60.9971 9.95061 63.0784 9.95061H64.6096C64.5312 9.04745 64.0599 8.4192 63.1962 8.4192C62.4893 8.4192 62.0181 8.81186 61.7824 9.24379L60.369 9.0082C60.7224 7.79092 61.9396 7.08411 63.2746 7.08411C65.0024 7.08411 66.1018 8.26211 66.1018 10.304ZM64.5706 11.1679H63.1178C61.9396 11.1679 61.5468 11.5605 61.5468 12.071C61.5468 12.66 62.0181 13.0527 62.8034 13.0527C63.8243 13.0527 64.5706 12.3066 64.5706 11.1679Z" fill="white"/>
<path d="M72.1493 14.23L69.7149 11.442H69.3221V14.23H67.7515V7.20117H69.3221V9.91058H69.7149L72.0708 7.20117H73.9165L70.9715 10.5781L74.1912 14.23H72.1493Z" fill="white"/>
<path d="M77.0181 14.23V8.61477H74.5837V7.20117H80.9844V8.61477H78.5497V14.23H77.0181Z" fill="white"/>
<path d="M88.8377 11.1679H83.1833C83.3405 12.2674 84.1258 12.9742 85.3036 12.9742C86.1283 12.9742 86.7568 12.6208 87.1102 12.1103L88.563 12.3459C88.0524 13.681 86.678 14.3878 85.1858 14.3878C83.0655 14.3878 81.5343 12.8564 81.5343 10.7359C81.5343 8.61551 83.0655 7.08411 85.1858 7.08411C87.3065 7.08411 88.8377 8.61551 88.8377 10.6574C88.8771 10.8537 88.8377 11.0108 88.8377 11.1679ZM83.3011 9.95061H87.1886C86.9136 9.08673 86.2068 8.45845 85.2252 8.45845C84.2827 8.4192 83.5368 9.04745 83.3011 9.95061Z" fill="white"/>
<path d="M3 10.2C3 6.80588 3 5.10883 4.05442 4.05442C5.10883 3 6.80588 3 10.2 3H10.8C14.1941 3 15.8912 3 16.9456 4.05442C18 5.10883 18 6.80588 18 10.2V10.8C18 14.1941 18 15.8912 16.9456 16.9456C15.8912 18 14.1941 18 10.8 18H10.2C6.80588 18 5.10883 18 4.05442 16.9456C3 15.8912 3 14.1941 3 10.8V10.2Z" fill="white"/>
<path d="M10.9812 13.8072C7.56247 13.8072 5.6125 11.4635 5.53125 7.56348H7.24375C7.3 10.426 8.56247 11.6385 9.56247 11.8885V7.56348H11.175V10.0322C12.1625 9.92598 13.1999 8.80098 13.5499 7.56348H15.1624C14.8937 9.08848 13.7687 10.2135 12.9687 10.676C13.7687 11.051 15.05 12.0322 15.5375 13.8072H13.7624C13.3812 12.6197 12.4313 11.701 11.175 11.576V13.8072H10.9812Z" fill="#0077FF"/>
</g>
<defs>
<clipPath id="clip0_1_85">
<rect width="86.25" height="15" fill="white" transform="translate(3 3)"/>
</clipPath>
</defs>
</svg>
