<svg width="28" height="28" viewBox="0 0 28 28" fill="none" xmlns="http://www.w3.org/2000/svg">
<g id="phone_outline_28">
<path id="&#226;&#134;&#179; Icon Color" d="M16.1159 17.259L15.382 17.9931C15.186 18.1894 14.8938 18.254 14.6333 18.1585C13.9034 17.89 12.9903 17.2084 11.894 16.1117C10.7987 15.016 10.1164 14.1026 9.849 13.3715C9.75334 13.1111 9.81749 12.8188 10.0134 12.6225L10.7482 11.8884C12.102 10.5341 12.2258 8.40111 11.0325 6.9854L10.1709 5.96101C9.18746 4.791 7.41575 4.6731 6.21249 5.6965C5.76499 6.08227 5.42857 6.58059 5.238 7.13995C5.15564 7.38344 5.10245 7.63585 5.07955 7.89189C4.63885 11.1642 6.21645 14.5989 9.81137 18.1952C13.4063 21.7914 16.8388 23.3686 20.1109 22.9278C20.9609 22.8466 21.747 22.4406 22.3055 21.7944C23.3295 20.5917 23.2106 18.8183 22.042 17.8346L21.018 16.9717C19.6008 15.7798 17.4696 15.9047 16.1159 17.259ZM13.3079 14.6976C13.8316 15.2214 14.2883 15.6188 14.6574 15.8894C16.7801 13.7659 20.083 13.5724 22.3062 15.4421L23.3295 16.3044C25.3581 18.0121 25.561 21.0553 23.8181 23.1023C22.9231 24.138 21.6633 24.7886 20.3778 24.9099C16.3968 25.4462 12.3934 23.6067 8.39751 19.6093C4.40156 15.6119 2.56184 11.6061 3.08808 7.71366C3.12507 7.30005 3.21099 6.8923 3.34546 6.49479C3.65087 5.59836 4.19002 4.79976 4.91732 4.17282C6.954 2.44059 9.99468 2.64352 11.7008 4.67344L12.561 5.69617C14.4326 7.9165 14.2409 11.223 12.1611 13.3035C12.387 13.7169 12.784 14.1735 13.3079 14.6976Z" fill="#2688EB"/>
</g>
</svg>
